<svg width="534" height="153" viewBox="0 0 534 153" fill="none" xmlns="http://www.w3.org/2000/svg">
<path d="M49.1587 110.213V99.7824H40.7579V89.3521H32.357V58.0612H40.7579V47.6309H49.1587V37.2006H91.1631V47.6309H57.5596V58.0612H49.1587V89.3521H57.5596V99.7824H74.3614V78.9218H65.9605V68.4915H91.1631V110.213H49.1587Z" fill="#26B129" fill-opacity="0.5098"/>
<path d="M107.963 110.213V99.7824H124.764V47.6309H107.963V37.2006H158.368V47.6309H141.566V99.7824H158.368V110.213H107.963Z" fill="#26B129" fill-opacity="0.5098"/>
<path d="M191.969 110.213V47.6309H175.167V37.2006H225.572V47.6309H208.771V110.213H191.969Z" fill="#26B129" fill-opacity="0.5098"/>
<path d="M45.1788 105.271V94.8411H36.778V84.4108H28.3771V53.1199H36.778V42.6896H45.1788V32.2593H87.1832V42.6896H53.5797V53.1199H45.1788V84.4108H53.5797V94.8411H70.3815V73.9805H61.9806V63.5502H87.1832V105.271H45.1788Z" fill="#26B129"/>
<path d="M103.983 105.271V94.8411H120.784V42.6896H103.983V32.2593H154.388V42.6896H137.586V94.8411H154.388V105.271H103.983Z" fill="#26B129"/>
<path d="M187.989 105.271V42.6896H171.187V32.2593H221.593V42.6896H204.791V105.271H187.989Z" fill="#26B129"/>
<path d="M246.703 110.213V99.7824H238.302V89.3521H229.901V58.0612H238.302V47.6309H246.703V37.2006H288.708V47.6309H255.104V58.0612H246.703V89.3521H255.104V99.7824H271.906V78.9218H263.505V68.4915H288.708V110.213H246.703Z" fill="#0CDB0F" fill-opacity="0.5098"/>
<path d="M297.106 110.213V58.0612H305.507V47.6309H313.908V37.2006H339.11V47.6309H347.511V58.0612H355.912V110.213H339.11V89.3521H313.908V110.213H297.106ZM313.908 78.9218H339.11V58.0612H330.71V47.6309H322.309V58.0612H313.908V78.9218Z" fill="#0CDB0F" fill-opacity="0.5098"/>
<path d="M364.311 110.213V37.2006H381.113V47.6309H389.513V58.0612H397.914V47.6309H406.315V37.2006H423.117V110.213H406.315V68.4915H397.914V89.3521H389.513V68.4915H381.113V110.213H364.311Z" fill="#0CDB0F" fill-opacity="0.5098"/>
<path d="M431.516 110.213V37.2006H490.322V47.6309H448.317V68.4915H481.921V78.9218H448.317V99.7824H490.322V110.213H431.516Z" fill="#0CDB0F" fill-opacity="0.5098"/>
<path d="M242.723 105.271V94.8411H234.322V84.4108H225.921V53.1199H234.322V42.6896H242.723V32.2593H284.728V42.6896H251.124V53.1199H242.723V84.4108H251.124V94.8411H267.926V73.9805H259.525V63.5502H284.728V105.271H242.723Z" fill="white"/>
<path d="M293.126 105.271V53.1199H301.527V42.6896H309.928V32.2593H335.13V42.6896H343.531V53.1199H351.932V105.271H335.13V84.4108H309.928V105.271H293.126ZM309.928 73.9805H335.13V53.1199H326.73V42.6896H318.329V53.1199H309.928V73.9805Z" fill="white"/>
<path d="M360.331 105.271V32.2593H377.133V42.6896H385.534V53.1199H393.934V42.6896H402.335V32.2593H419.137V105.271H402.335V63.5502H393.934V84.4108H385.534V63.5502H377.133V105.271H360.331Z" fill="white"/>
<path d="M427.536 105.271V32.2593H486.342V42.6896H444.337V63.5502H477.941V73.9805H444.337V94.8411H486.342V105.271H427.536Z" fill="white"/>
</svg>
